<svg xmlns="http://www.w3.org/2000/svg" xmlns:xlink="http://www.w3.org/1999/xlink" viewBox="0 0 866.88 1000"><defs><style>.cls-1{fill:url(#linear-gradient);}.cls-2{fill:url(#linear-gradient-2);}</style><linearGradient id="linear-gradient" x1="265.14" y1="858.91" x2="548.85" y2="367.51" gradientUnits="userSpaceOnUse"><stop offset="0" stop-color="#004186"/><stop offset="1" stop-color="#248b3f"/></linearGradient><linearGradient id="linear-gradient-2" x1="385.72" y1="698.22" x2="574.42" y2="371.37" xlink:href="#linear-gradient"/></defs><g id="Camada_2" data-name="Camada 2"><g id="Layer_1" data-name="Layer 1"><path class="cls-1" d="M0,556.89V529a19.63,19.63,0,0,0,.69-3c.54-6.68,1.12-13.37,1.51-20.06a535.68,535.68,0,0,1,7-59.92C16.07,406.22,27.34,367.7,44,330.87,85.16,240,149,170.55,238.27,125.06c.66-.34,1.27-.79,2-1.28-2-11.35-7.58-20.94-13.86-30.31,14,3,25.89,9.69,36.95,19.44a75,75,0,0,0-6.21-20.75c-3-6.15-6.32-12.12-9.79-18.71a107.46,107.46,0,0,1,45.87,27.78c-1.84-19-9.14-35.26-17.34-51.36,22,7.72,40.3,20.76,56.44,38.15a101.09,101.09,0,0,0-.5-21.23c-1.25-11.74-4.65-23-8.33-34.12-.34-1-.57-2.1-1.09-4.05,23.77,13.86,42.24,31.71,55.79,55a468.19,468.19,0,0,1,87-1.8c.09-27.66.18-54.73.26-81.8h.78a6.22,6.22,0,0,0,1.34.67,850.89,850.89,0,0,1,101.9,28.8c39.27,13.89,77,31.06,112.31,53.29,70.6,44.42,121.55,105,151.08,183.3,17,45.11,26.13,91.95,30.68,139.78,2,21.6,3.08,43.24,3.24,64.94.28,36.8-.42,73.57-3.35,110.27-.16,2-.45,4-.71,6.16H801.22c-10.19,0-20.39,0-30.59,0s-20.28-.21-30.33.16c-.84,8.32-1.65,16.21-2.47,24.26,1,.06,1.89.16,2.77.15,29.79-.28,58.38,6,86.39,15.58a29.91,29.91,0,0,1,11.06,6.21c5.09,4.79,5.13,10.33.11,15.15a27.84,27.84,0,0,1-10,5.77c-5.88,2.16-12,2.75-18.21,3.29a777.1,777.1,0,0,1-85.09,2.76c-6.32-.14-12.64-.62-19-.84-2.73-.1-4.92-.86-6.6-3.23-1.86-2.62-4.1-5-6.08-7.53-13.5-17.43-22.94-37-30-57.77-.44-1.31-1-2.59-1.47-4h-4.12q-148.69,0-297.41-.05a8.25,8.25,0,0,0-6.45,2.59q-25.77,26-51.7,51.8c-.77.76-1.46,1.61-2.46,2.73a8.78,8.78,0,0,0,1.6-.16c10.68-3.88,21.67-4.53,32.82-2.91A119.56,119.56,0,0,1,392.85,667a51.32,51.32,0,0,1,15.62,20.4,25.39,25.39,0,0,1,2.1,11.7c-.47,6.48-4.68,10.77-11.18,11.11a16.19,16.19,0,0,1-5.74-.47,82,82,0,0,1-12.92-5,189,189,0,0,0-27.94-12.26c-32-10.93-64.51-11.56-97.39-5-4.52.9-9,1.91-13.42,2.85a7,7,0,0,1-.81-1.25c-.4-1.09-.76-2.19-1.09-3.31-3.8-12.88-3.84-26-1.92-39.11,2-14,6.27-27.38,11.6-40.43.51-1.26,1-2.52,1.65-4.22-1.37.32-2.1.45-2.81.66-8.29,2.41-16.52,5.06-24.88,7.22-21.56,5.57-42.89,5.29-63.78-3.19a19.28,19.28,0,0,0-2.37-.61,31.34,31.34,0,0,0,0,5.15,335.16,335.16,0,0,0,26,84c25.87,55.42,64.66,99.12,118.13,129.3C339.89,846,381.1,857.58,424.6,861.13a345.31,345.31,0,0,0,80.68-2.83,313.14,313.14,0,0,0,92.6-29.13c40.82-20.31,75.45-48.4,104.55-83.41,1.05-1.26,2.13-2.51,3.29-3.88l104.32,89c-1,1.33-1.71,2.38-2.49,3.38q-68,86.63-169.57,129.31c-50.59,21.26-103.51,32.19-158.14,35.51a516.14,516.14,0,0,1-93.91-2.91,456.52,456.52,0,0,1-85.63-18.76c-67.3-21.8-126.09-57.47-175.16-108.58-61.89-64.46-98.59-141.74-115-229.07a563.86,563.86,0,0,1-8.79-73C1.12,563.47.45,560.19,0,556.89ZM584.67,218.73c-72-.14-130.55,58.24-131,130.18-.43,72.15,58.25,131.4,130.42,131.46,72.45.05,131.18-58.36,131.21-130.7A130.91,130.91,0,0,0,584.67,218.73Z"/><path class="cls-2" d="M641,376.52l-56.29-3.71c-13.13-.86-26.26-1.62-39.38-2.62-11.56-.88-23.13-1.78-34.64-3.17a65.13,65.13,0,0,1-14.13-3.82c-6.05-2.19-9.11-6.85-9.44-13.31-.34-6.77,1.9-12.15,8.1-15.45a49.69,49.69,0,0,1,18.1-5.2c10.76-1.22,21.55-2.14,32.34-3.12,13.73-1.25,27.47-2.5,41.22-3.62,16.71-1.36,33.41-2.79,50.14-3.8a97.86,97.86,0,0,1,31.09,2.68c1.37.37,2.71.83,4.06,1.28,9.82,3.23,14.37,10.39,14.89,20.36a41.86,41.86,0,0,1-.41,9.63c-2.19,12.06-10.89,20.59-23.2,22.93a60.61,60.61,0,0,1-9.22.9C649.41,376.62,644.64,376.52,641,376.52Z"/></g></g></svg>